# xmcd
#
# Track frame offsets:
#	150
#	11790
#	21743
#	34403
#	45271
#	56534
#	69371
#	80239
#	90817
#	102245
#	117766
#
# Disc length: 1707 seconds
#
# Revision: 1
# Processed by: cddbd v1.5.2PL0 Copyright (c) Steve Scherf et al.
# Submitted via: audiograbber 1.83.01
#
DISCID=8806a90b
DTITLE=Porter Wagoner - You Gotta Have A License
DYEAR=1970
DGENRE=Country
TTITLE0=When You're Hot You're Hot
TTITLE1=The Way He Said Your Name
TTITLE2=Roses Out Of Season
TTITLE3=Southern Bound
TTITLE4=Fairchild
TTITLE5=My Special Prayer Request
TTITLE6=You Gotta Have A License
TTITLE7=Stranger's Story
TTITLE8=Forty Miles From Poplar Bluff
TTITLE9=Little Boy's Prayer
TTITLE10=Walk On Fool
EXTD=
EXTT0=
EXTT1=
EXTT2=
EXTT3=
EXTT4=
EXTT5=
EXTT6=
EXTT7=
EXTT8=
EXTT9=
EXTT10=
PLAYORDER=
